# xmcd
# Track frame offsets:
# 150
# 11555
# 26388
# 37788
# 51612
# 65135
# 75129
# 89842
# 101433
# 115192
# 128835
# 137396
# 146891
# 162841
#
# Disc length: 2326 seconds
# Revision: 1
# Processed by: cddbd v1.5.2PL0 Copyright (c) Steve Scherf et al.
# Submitted via: VisiTrax 2.11.3.279 - For more info visit www.synapsa.com
#
DISCID=b509140e
DTITLE=Slim Dusty - Talk About The Good Times
DYEAR=1997
DGENRE=Australian Country
TTITLE0=Slim Dusty - Talk About The Good Times
TTITLE1=Slim Dusty - Carry My Own Guitar
TTITLE2=Slim Dusty - Anywhere I Am
TTITLE3=Slim Dusty - Closest Thing To Freedom
TTITLE4=Slim Dusty - Train Whistle Blues
TTITLE5=Slim Dusty - A Mate Can Do No Wrong
TTITLE6=Slim Dusty With Joy Mckean - Mississippi Delta Blues
TTITLE7=Slim Dusty With Joy Mckean - I've Got That Lonesome Feeling
TTITLE8=Slim Dusty - Guess Who Felt Silly
TTITLE9=Slim Dusty - Lights On The Hill (Original Version)
TTITLE10=Slim Dusty - No Good Baby
TTITLE11=Slim Dusty - I'll Come Around
TTITLE12=Slim Dusty - Camooweal
TTITLE13=Slim Dusty - You're Still On My Mind
EXTD=EMI Music Australia
EXTT0=
EXTT1=
EXTT2=
EXTT3=
EXTT4=
EXTT5=
EXTT6=
EXTT7=
EXTT8=
EXTT9=
EXTT10=
EXTT11=
EXTT12=
EXTT13=
PLAYORDER=
